<?xml version="1.0" encoding="UTF-8" standalone="no"?>
<!-- Created with Inkscape (http://www.inkscape.org/) -->

<svg
   width="800"
   height="800"
   viewBox="0 0 211.66666 211.66667"
   version="1.1"
   id="svg5"
   stroke='none'
   stroke-opacity='0'
   inkscape:version="1.1.2 (b8e25be8, 2022-02-05)"
   sodipodi:docname="line.svg"
   xmlns:inkscape="http://www.inkscape.org/namespaces/inkscape"
   xmlns:sodipodi="http://sodipodi.sourceforge.net/DTD/sodipodi-0.dtd"
   xmlns:xlink="http://www.w3.org/1999/xlink"
   xmlns="http://www.w3.org/2000/svg"
   xmlns:svg="http://www.w3.org/2000/svg">
  <sodipodi:namedview
     id="namedview7"
     pagecolor="#ffffff"
     bordercolor="#666666"
     borderopacity="1.0"
     inkscape:pageshadow="2"
     inkscape:pageopacity="0.0"
     inkscape:pagecheckerboard="0"
     inkscape:document-units="mm"
     showgrid="false"
     units="px"
     inkscape:zoom="0.78"
     inkscape:cx="399.35897"
     inkscape:cy="399.35897"
     inkscape:window-width="1312"
     inkscape:window-height="855"
     inkscape:window-x="1672"
     inkscape:window-y="97"
     inkscape:window-maximized="0"
     inkscape:current-layer="layer1" />
  <defs
     id="defs2">
    <linearGradient
       inkscape:collect="always"
       id="linearGradient4483">
      <stop
         style="stop-color:#000000;stop-opacity:1;"
         offset="0"
         id="stop4479" />
      <stop
         style="stop-color:#000000;stop-opacity:0;"
         offset="1"
         id="stop4481" />
    </linearGradient>
    <linearGradient
       inkscape:collect="always"
       id="linearGradient3192-4">
      <stop
         style="stop-color:#96fcb6;stop-opacity:1;"
         offset="0"
         id="stop3188" />
      <stop
         style="stop-color:#8ae4f9;stop-opacity:1"
         offset="1"
         id="stop3190" />
    </linearGradient>
    <inkscape:path-effect
       effect="spiro"
       id="path-effect945"
       is_visible="true"
       lpeversion="1" />
    <inkscape:path-effect
       effect="spiro"
       id="path-effect859"
       is_visible="true"
       lpeversion="1" />
    <linearGradient
       inkscape:collect="always"
       xlink:href="#linearGradient3192-4"
       id="linearGradient3194"
       x1="-0.12759621"
       y1="105.83318"
       x2="211.79441"
       y2="105.83318"
       gradientUnits="userSpaceOnUse"
       gradientTransform="translate(0.12759621,0.12775368)" />
    <linearGradient
       inkscape:collect="always"
       xlink:href="#linearGradient4483"
       id="linearGradient4485"
       x1="1.0018084e-09"
       y1="105.82992"
       x2="211.66493"
       y2="105.82992"
       gradientUnits="userSpaceOnUse"
       gradientTransform="matrix(1.0000082,0,0,1.0000399,2.1686382e-6,-2.1709203e-6)" />
  </defs>
  <g
     inkscape:label="Layer 1"
     inkscape:groupmode="layer"
     id="layer1">
    <path
       style="fill:none;stroke:url(#linearGradient4485);stroke-width:0.274018px;stroke-linecap:butt;stroke-linejoin:miter;stroke-opacity:1"
       d="m 12.326613,6.4541429 c 5.621603,-3.9189891 12.599742,-5.85094685 19.43642,-5.3811396 6.836679,0.4698072 13.484948,3.3381532 18.517623,7.9892898 3.088885,2.8547099 5.590718,6.3918059 6.976479,10.3629819 1.385761,3.971177 1.617549,8.3825 0.375313,12.400886 -1.242236,4.018386 -4.005958,7.599212 -7.719266,9.574539 -1.856654,0.987664 -3.93085,1.572409 -6.031924,1.662587 -2.101074,0.09018 -4.226183,-0.317577 -6.129123,-1.212821 -2.734493,-1.286451 -4.919402,-3.515583 -6.744052,-5.924538 -1.824649,-2.408955 -3.34733,-5.034021 -5.150811,-7.458865 -1.80348,-2.424844 -3.944169,-4.688035 -6.64392,-6.045885 -1.349875,-0.678925 -2.828612,-1.119704 -4.337272,-1.203652 -1.50866,-0.08395 -3.047043,0.196702 -4.391899,0.885517 -1.4590318,0.747294 -2.6593646,1.960987 -3.4761767,3.382268 -0.816812,1.421281 -1.2583723,3.043463 -1.3736013,4.678683 -0.2304579,3.27044 0.8194913,6.510879 2.2703785,9.450915 C 11.8872,47.684767 18.974191,54.04447 27.15975,57.783306 c 8.185559,3.738835 17.408552,4.943933 26.372548,4.150806 17.927991,-1.586254 34.271636,-10.812568 48.918982,-21.27127 14.64734,-10.458701 28.35125,-22.41974 44.28929,-30.7808214 7.96903,-4.1805407 16.48741,-7.4322481 25.36588,-8.90026639 8.87847,-1.46801825 18.13921,-1.10654419 26.674,1.74645989 3.95697,1.3227341 7.90108,3.3055556 10.31762,6.7066718 2.02861,2.8551331 2.78329,6.5318351 2.28122,9.9980971 -0.50207,3.466262 -2.21148,6.709011 -4.61266,9.258792 -2.40118,2.549781 -5.47045,4.424436 -8.75584,5.63823 -3.28538,1.213794 -6.78563,1.782982 -10.28491,1.931568 -9.31589,0.395569 -18.55091,-2.155827 -27.10772,-5.86034 C 152.06136,26.69672 144.05823,21.849085 135.88735,17.356969 127.71647,12.864853 119.26765,8.6845212 110.2103,6.4693993 101.15295,4.2542774 91.367034,4.1145683 82.707411,7.5719217 78.298366,9.3322325 74.195209,12.055058 71.315944,15.829737 c -2.879266,3.77468 -4.442334,8.660933 -3.716452,13.352571 0.65843,4.255671 3.159277,8.116941 6.517329,10.812817 3.358053,2.695877 7.522171,4.278601 11.776394,4.946321 8.508447,1.335439 17.122535,-0.852993 25.516855,-2.779742 8.39433,-1.926749 17.23247,-3.59726 25.52525,-1.271994 4.14639,1.162633 8.06228,3.357261 10.89468,6.600985 2.83241,3.243725 4.50497,7.579758 4.15275,11.871635 -0.26997,3.289694 -1.70325,6.430389 -3.79755,8.981634 -2.09431,2.551245 -4.82633,4.534138 -7.78159,6.004321 -5.91051,2.940368 -12.58615,3.846544 -19.09363,4.956763 -6.50748,1.110219 -13.1788,2.549077 -18.58607,6.336063 -2.70364,1.893493 -5.038272,4.370283 -6.513557,7.322994 -1.475286,2.952711 -2.052852,6.395485 -1.342911,9.618985 0.640769,2.90943 2.316435,5.55975 4.589935,7.48499 2.273503,1.92524 5.123883,3.13261 8.073043,3.55429 2.94916,0.42168 5.99025,0.0708 8.81073,-0.88852 2.82047,-0.95931 5.42241,-2.51763 7.68756,-4.45269 4.5303,-3.87011 7.65515,-9.163319 9.85327,-14.701336 2.19813,-5.538017 3.53867,-11.370138 5.04087,-17.135966 1.5022,-5.765829 3.1937,-11.538733 6.02356,-16.782134 2.82987,-5.243401 6.89921,-9.973388 12.20372,-12.686983 2.65225,-1.356797 5.58725,-2.18834 8.56455,-2.29321 2.97731,-0.104869 5.99407,0.529357 8.61818,1.939803 2.62412,1.410446 4.83981,3.608104 6.15827,6.279621 1.31846,2.671518 1.71172,5.811466 0.97049,8.696933 -0.59343,2.310113 -1.8844,4.406646 -3.52061,6.142042 -1.63621,1.735397 -3.61057,3.125068 -5.69154,4.290559 -6.88243,3.854653 -14.96956,5.288063 -22.84324,4.807259 -7.87369,-0.480803 -15.5544,-2.805758 -22.73982,-6.060879 C 112.29556,64.266628 99.898316,54.151194 86.307007,46.139895 79.511352,42.134246 72.362655,38.633957 64.771796,36.488027 57.180938,34.342097 49.110823,33.585149 41.362585,35.065339 c -7.748237,1.48019 -15.15466,5.298325 -20.300163,11.277452 -5.145503,5.979126 -7.843833,14.184458 -6.524895,21.961768 0.891198,5.25508 3.528573,10.114924 7.00123,14.158531 4.906325,5.712988 11.477938,9.890504 18.577521,12.401714 7.099584,2.511209 14.715669,3.397651 22.240781,3.109664 15.050226,-0.575975 29.511578,-5.7285 43.576931,-11.114308 14.06535,-5.385808 28.21408,-11.113865 43.16501,-12.933351 7.47547,-0.909743 15.11475,-0.816891 22.47086,0.794918 7.35611,1.61181 14.42792,4.778851 20.20936,9.604324 4.71481,3.935215 8.54637,8.980609 10.77979,14.701383 2.23342,5.720776 2.827,12.118346 1.38024,18.086786 -1.93221,7.97113 -7.45292,14.84866 -14.4284,19.16316 -6.97548,4.31451 -15.30163,6.17994 -23.5031,6.08993 -16.40295,-0.18003 -31.72251,-7.77152 -46.13139,-15.61201 -14.40888,-7.8405 -29.05542,-16.26804 -45.322846,-18.37992 -8.133712,-1.05594 -16.580513,-0.44432 -24.207267,2.57312 -7.626754,3.01743 -14.37714,8.55569 -18.121399,15.85314 -4.234411,8.25275 -4.327671,18.41147 -0.64683,26.92555 3.680841,8.51407 10.967234,15.30865 19.556804,18.8097 8.58957,3.50105 18.375898,3.7699 27.284544,1.18647 8.908647,-2.58342 16.925049,-7.94013 23.080824,-14.87875 7.56015,-8.5216 12.33908,-19.4137 13.80347,-30.71101 1.46439,-11.29731 -0.34949,-22.959 -4.88604,-33.408561 C 105.88106,84.275481 98.661311,75.044986 89.810599,67.872924 80.959886,60.700862 70.504361,55.574417 59.492802,52.655659 49.334068,49.962953 38.441674,49.156554 28.361657,52.130401 c -5.040009,1.486924 -9.824346,3.916379 -13.851479,7.292003 -4.027132,3.375624 -7.2815165,7.71011 -9.1847975,12.608085 -2.4159029,6.217175 -2.5856881,13.220999 -0.8304237,19.655974 1.7552644,6.434975 5.3819477,12.297947 10.0949902,17.017807 9.426085,9.43972 22.792463,14.09164 36.059196,15.48921 16.771241,1.76675 33.648223,-1.19405 50.206727,-4.38964 16.55851,-3.19559 33.2733,-6.65483 50.11999,-5.89009 8.42335,0.38237 16.83891,1.83836 24.7223,4.8302 7.8834,2.99183 15.22978,7.55283 21.02543,13.67732 5.79565,6.1245 9.99292,13.84703 11.45815,22.15077 1.46524,8.30374 0.10287,17.16647 -4.24249,24.39259 -2.45048,4.07502 -5.82389,7.6069 -9.84645,10.14257 -4.02257,2.53567 -8.69351,4.06102 -13.44393,4.27099 -4.75043,0.20998 -9.56829,-0.90991 -13.68194,-3.29497 -4.11366,-2.38505 -7.49868,-6.04027 -9.45689,-10.37341 -2.96756,-6.56663 -2.52258,-14.32818 0.0527,-21.05833 2.57528,-6.73016 7.11447,-12.54313 12.15888,-17.6891 5.04441,-5.14597 10.63827,-9.72073 15.83496,-14.71287 5.1967,-4.99214 10.05332,-10.48866 13.22386,-16.95973 4.87886,-9.95773 5.37677,-21.902006 1.65949,-32.349086 -3.71727,-10.447081 -11.53387,-19.311284 -21.27507,-24.609269 -9.7412,-5.297985 -21.30239,-7.050081 -32.23853,-5.216937 -10.93614,1.833143 -21.20338,7.187273 -29.21277,14.855993 -12.76791,12.224842 -19.393534,29.534353 -23.387254,46.754009 -3.993719,17.21966 -5.758456,34.95241 -10.801377,51.89453 -2.521461,8.47106 -5.874243,16.74069 -10.57089,24.22788 -4.696647,7.4872 -10.775583,14.18702 -18.171184,19.02661 -7.395602,4.8396 -16.146411,7.75762 -24.984155,7.65332 -8.837743,-0.10431 -17.718092,-3.35194 -24.1048438,-9.46144 -1.4143794,-1.35298 -2.7105135,-2.84582 -3.7037928,-4.53236 -0.99327941,-1.68654 -1.67774036,-3.57577 -1.82349492,-5.52764 -0.1834359,-2.45647 0.49906037,-4.93738 1.72617852,-7.07328 1.2271181,-2.13591 2.9799008,-3.94022 4.951403,-5.41707 3.943004,-2.95371 8.680931,-4.5981 13.220655,-6.51188 7.195665,-3.03343 14.105485,-6.86922 20.065951,-11.91423 5.960467,-5.04502 10.955936,-11.3424 13.901637,-18.57442 2.945702,-7.23203 3.757123,-15.42447 1.652112,-22.94432 -2.105011,-7.51986 -7.250232,-14.2657 -14.247521,-17.73229 -6.246897,-3.094832 -13.826127,-3.437258 -20.276238,-0.79193 -6.450112,2.64533 -11.636625,8.26839 -13.6244605,14.95047 -2.1267209,7.14894 -0.5716636,15.10421 3.3047805,21.4763 3.876444,6.37208 9.899001,11.24923 16.53835,14.64767 13.278699,6.79687 28.624485,7.87735 43.16795,11.19533 23.597026,5.38347 45.871024,16.89773 70.012314,18.62964 6.58018,0.47207 13.35472,0.17279 19.49973,-2.22729 3.0725,-1.20005 5.95705,-2.92415 8.35097,-5.19341 2.39391,-2.26927 4.28717,-5.09325 5.31302,-8.22822 1.83136,-5.59657 0.72679,-11.98599 -2.56293,-16.86997 -3.28971,-4.88398 -8.62395,-8.25427 -14.37438,-9.52233 -5.75044,-1.26806 -11.86706,-0.50281 -17.30013,1.76814 -5.43307,2.27095 -10.19603,5.99979 -14.03421,10.46565 -5.90763,6.87375 -9.72314,15.86661 -9.04211,24.90457 0.34052,4.51898 1.80839,8.97376 4.38741,12.70013 2.57901,3.72637 6.28338,6.69815 10.55049,8.22422 5.40173,1.93185 11.39591,1.49575 16.9576,0.0892 5.56169,-1.40654 10.83966,-3.73652 16.26606,-5.59796 5.42639,-1.86145 11.1484,-3.26821 16.85922,-2.72287 2.8554,0.27266 5.67982,1.04199 8.19888,2.41386 2.51906,1.37188 4.72477,3.35975 6.20326,5.81775 2.2619,3.76043 2.68184,8.57279 1.10547,12.66816"
       id="path857"
       inkscape:path-effect="#path-effect859"
       inkscape:original-d="M 12.326613,6.4541429 C 24.978232,7.3238027 37.629581,8.1931859 50.280656,9.0622931 62.931729,9.9314006 41.928581,30.92135 37.752135,41.850466 33.575692,52.779581 19.573772,28.685793 10.484181,22.103043 1.394592,15.520293 8.7648545,33.777895 7.9047815,39.614909 7.0447086,45.451918 135.15549,15.024053 198.78045,2.7282141 262.4054,-9.5676261 205.65913,7.1996039 209.09807,9.4348859 212.53699,11.670168 194.85022,27.319618 187.72588,36.261573 180.60155,45.203526 117.71385,17.135414 82.707411,7.5719217 47.700981,-1.9915712 72.635737,21.979121 67.599492,29.182308 c -5.036249,7.203186 56.255778,20.12029 84.383258,30.180022 28.12748,10.059734 -38.07661,28.814125 -57.115308,43.22076 -19.038706,14.40666 57.729718,-27.323189 86.594178,-40.985202 28.86446,-13.662014 -6.14115,6.955343 -9.21215,10.432601 -3.07099,3.477256 -105.141022,-2.483675 -157.711943,-3.72593 -52.570923,-1.242253 4.66776,9.439294 7.00123,14.158531 2.333472,4.719233 113.493923,1.24225 170.240463,1.862961 56.74656,0.620716 8.10697,21.859049 12.16003,32.788169 4.05307,10.92912 -114.475992,6.45854 -171.714402,9.68742 -57.238409,3.22886 46.183835,21.36225 69.275342,32.04297 C 124.59169,169.52534 73.495536,88.052257 59.492802,52.655659 45.490066,17.25906 23.38146,65.572488 5.3253805,72.030489 c -18.0560795,6.458 30.2161125,34.775601 45.3237625,52.162991 15.107647,17.38739 102.193667,36.51438 153.290107,54.77115 51.09644,18.25678 -30.95252,0.49706 -46.42921,0.74518 -15.47668,0.24813 27.51389,-46.9464 41.27041,-70.42003 C 212.53699,85.816149 144.73614,77.743853 117.71357,61.970481 90.690997,46.197107 43.034039,155.36736 5.6938662,202.06539 -31.646307,248.76343 2.0092801,195.359 0.16657848,192.00539 -1.6761234,188.65178 13.432342,179.3375 20.064815,173.00316 26.697286,166.6688 34.313207,125.55993 41.436994,101.8379 48.560782,78.115897 18.836802,111.27722 7.5362955,115.99644 -3.76421,120.71567 49.543956,147.5429 70.547376,163.31574 c 21.003424,15.7728 46.675144,12.42004 70.012314,18.62964 23.33716,6.2096 22.10942,-10.43233 33.16372,-15.64892 11.05432,-5.21657 -32.18082,-9.43873 -48.27165,-14.15851 -16.09082,-4.7198 3.9308,30.55289 5.89579,45.82892 1.96497,15.27605 42.99028,2.8e-4 64.48502,0 21.49472,-2.7e-4 0.73725,8.44572 1.10547,12.66816" />
    <path
       style="fill:none;fill-opacity:1;stroke:url(#linearGradient3194);stroke-width:0.529167;stroke-linecap:butt;stroke-linejoin:miter;stroke-miterlimit:4;stroke-dasharray:none;stroke-opacity:1"
       d="m 12.454209,6.5818966 c 5.621603,-3.9189891 12.599742,-5.85094676 19.43642,-5.3811395 6.836679,0.4698072 13.484948,3.3381531 18.517623,7.9892897 3.088885,2.8547092 5.590719,6.3918052 6.976479,10.3629822 1.385761,3.971176 1.617549,8.3825 0.375314,12.400886 -1.242236,4.018386 -4.005959,7.599212 -7.719267,9.574539 -1.856654,0.987664 -3.93085,1.572409 -6.031924,1.662587 -2.101074,0.09018 -4.226183,-0.317577 -6.129123,-1.212821 -2.734493,-1.286451 -4.919402,-3.515583 -6.744052,-5.924538 -1.824649,-2.408955 -3.34733,-5.034021 -5.15081,-7.458865 -1.803481,-2.424844 -3.94417,-4.688035 -6.64392,-6.045885 -1.349876,-0.678925 -2.828613,-1.119704 -4.337273,-1.203652 -1.50866,-0.08395 -3.047043,0.196702 -4.391899,0.885517 -1.4590318,0.747294 -2.6593646,1.960987 -3.4761766,3.382268 -0.816812,1.421281 -1.2583723,3.043463 -1.3736013,4.678683 -0.2304579,3.27044 0.8194914,6.510879 2.2703786,9.450915 3.9824183,8.069858 11.0694103,14.429561 19.2549693,18.168397 8.185559,3.738835 17.408552,4.943933 26.372548,4.150806 17.927991,-1.586254 34.271636,-10.812568 48.918975,-21.27127 14.64735,-10.458701 28.35125,-22.41974 44.2893,-30.780822 7.96903,-4.1805405 16.48741,-7.432248 25.36588,-8.9002662 8.87847,-1.46801826 18.13921,-1.10654415 26.674,1.74646 3.95697,1.3227341 7.90108,3.3055556 10.31762,6.7066718 2.02861,2.8551334 2.78329,6.5318354 2.28122,9.9980974 -0.50207,3.466261 -2.21148,6.709011 -4.61266,9.258792 -2.40118,2.54978 -5.47045,4.424435 -8.75584,5.63823 -3.28538,1.213794 -6.78563,1.782982 -10.28491,1.931568 -9.31589,0.39557 -18.55091,-2.155827 -27.10772,-5.86034 C 152.18895,26.824474 144.18583,21.976838 136.01495,17.484722 127.84407,12.992606 119.39524,8.8122746 110.33789,6.5971527 101.28054,4.3820307 91.49463,4.2423217 82.835007,7.6996754 78.425962,9.4599863 74.322805,12.182812 71.44354,15.957491 c -2.879266,3.77468 -4.442334,8.660933 -3.716452,13.352571 0.65843,4.255671 3.159277,8.116941 6.51733,10.812818 3.358052,2.695877 7.522171,4.2786 11.776394,4.94632 8.508447,1.33544 17.122528,-0.852994 25.516858,-2.779743 8.39433,-1.926749 17.23247,-3.59726 25.52525,-1.271994 4.14639,1.162633 8.06228,3.357261 10.89468,6.600986 2.83241,3.243724 4.50497,7.579758 4.15275,11.871635 -0.26997,3.289694 -1.70325,6.430389 -3.79755,8.981633 -2.09431,2.551245 -4.82634,4.534138 -7.78159,6.004322 -5.91051,2.940367 -12.58616,3.846542 -19.09364,4.956761 -6.50748,1.110218 -13.17879,2.549076 -18.58607,6.336062 -2.70363,1.893492 -5.038265,4.370282 -6.513551,7.322993 -1.475285,2.952711 -2.052851,6.395484 -1.342911,9.618985 0.640769,2.90943 2.316435,5.55975 4.589934,7.48499 2.273498,1.92524 5.123878,3.13261 8.073038,3.55429 2.94916,0.42168 5.99026,0.0708 8.81073,-0.88852 2.82047,-0.95931 5.42241,-2.51763 7.68756,-4.45269 4.53031,-3.87011 7.65515,-9.163316 9.85328,-14.701333 2.19813,-5.538017 3.53867,-11.370138 5.04087,-17.135967 1.5022,-5.765829 3.1937,-11.538733 6.02356,-16.782133 2.82987,-5.243401 6.89921,-9.973388 12.20372,-12.686983 2.65225,-1.356797 5.58725,-2.18834 8.56455,-2.293209 2.97731,-0.10487 5.99407,0.529357 8.61818,1.939803 2.62412,1.410446 4.83981,3.608104 6.15827,6.279621 1.31846,2.671518 1.71172,5.811466 0.97049,8.696933 -0.59343,2.310113 -1.8844,4.406646 -3.52061,6.142042 -1.63621,1.735397 -3.61057,3.125068 -5.69154,4.290559 -6.88243,3.854653 -14.96956,5.288063 -22.84325,4.80726 C 141.66014,76.484699 133.97943,74.159744 126.794,70.904623 112.42315,64.394382 100.02591,54.278947 86.434604,46.267649 79.63895,42.261999 72.490252,38.76171 64.899393,36.61578 57.308535,34.46985 49.23842,33.712902 41.490182,35.193092 c -7.748238,1.48019 -15.154661,5.298326 -20.300164,11.277452 -5.145503,5.979127 -7.843833,14.184459 -6.524895,21.961769 0.891198,5.25508 3.528573,10.114924 7.00123,14.158531 4.906325,5.712988 11.477938,9.890505 18.577522,12.401714 7.099583,2.511209 14.715668,3.397651 22.240781,3.109664 15.050226,-0.575974 29.511579,-5.7285 43.576934,-11.114308 14.06535,-5.385809 28.21407,-11.113866 43.16501,-12.933352 7.47547,-0.909743 15.11475,-0.816891 22.47086,0.794919 7.35611,1.611809 14.42792,4.77885 20.20936,9.604324 4.71481,3.935214 8.54637,8.980608 10.77979,14.701381 2.23341,5.720774 2.827,12.118344 1.38024,18.086784 -1.93221,7.97113 -7.45292,14.84866 -14.4284,19.16316 -6.97548,4.31451 -15.30162,6.17994 -23.5031,6.08993 -16.40295,-0.18002 -31.72251,-7.77151 -46.13139,-15.61201 -14.40888,-7.84049 -29.055421,-16.26804 -45.322847,-18.37992 -8.133713,-1.05594 -16.580514,-0.44432 -24.207269,2.57312 -7.626754,3.01743 -14.37714,8.55569 -18.1214,15.85314 -4.234413,8.25275 -4.327673,18.41147 -0.646832,26.92555 3.680841,8.51407 10.967235,15.30866 19.556806,18.80971 8.589572,3.50104 18.375901,3.76989 27.284547,1.18647 8.908647,-2.58343 16.92505,-7.94014 23.080825,-14.87876 7.56015,-8.5216 12.33908,-19.4137 13.80347,-30.71101 1.46439,-11.29731 -0.3495,-22.959 -4.88605,-33.408559 C 106.00866,84.403233 98.788905,75.172739 89.938193,68.000677 81.087481,60.828615 70.631957,55.702171 59.620398,52.783413 49.461664,50.090707 38.56927,49.284307 28.489252,52.258155 c -5.040009,1.486924 -9.824346,3.916378 -13.851478,7.292003 -4.027132,3.375624 -7.2815165,7.71011 -9.1847973,12.608085 -2.4159025,6.217175 -2.5856874,13.220999 -0.8304228,19.655973 1.7552646,6.434974 5.3819481,12.297944 10.0949901,17.017804 9.426085,9.43972 22.792463,14.09164 36.059195,15.48921 16.771242,1.76675 33.648224,-1.19405 50.206731,-4.38964 16.55851,-3.19559 33.2733,-6.65483 50.11999,-5.89009 8.42335,0.38237 16.83891,1.83836 24.7223,4.8302 7.8834,2.99183 15.22978,7.55283 21.02543,13.67732 5.79565,6.1245 9.99292,13.84703 11.45815,22.15077 1.46524,8.30374 0.10287,17.16647 -4.24249,24.39259 -2.45048,4.07502 -5.82389,7.6069 -9.84645,10.14257 -4.02257,2.53567 -8.69351,4.06102 -13.44393,4.27099 -4.75043,0.20998 -9.56829,-0.90991 -13.68194,-3.29497 -4.11366,-2.38505 -7.49868,-6.04027 -9.45689,-10.37341 -2.96756,-6.56663 -2.52258,-14.32818 0.0527,-21.05833 2.57528,-6.73016 7.11447,-12.54313 12.15888,-17.6891 5.04441,-5.14597 10.63827,-9.72073 15.83496,-14.71287 5.1967,-4.99214 10.05332,-10.48866 13.22386,-16.95973 4.87886,-9.95773 5.37677,-21.902005 1.65949,-32.349085 -3.71728,-10.44708 -11.53387,-19.311283 -21.27507,-24.609267 -9.7412,-5.297984 -21.30239,-7.05008 -32.23853,-5.216936 -10.93614,1.833144 -21.20338,7.187273 -29.21277,14.855993 -12.76791,12.224841 -19.393534,29.534353 -23.387254,46.754005 -3.99372,17.21966 -5.758458,34.95241 -10.80138,51.89453 -2.521461,8.47106 -5.874244,16.74069 -10.570891,24.22789 -4.696647,7.48719 -10.775583,14.18701 -18.171185,19.02661 -7.395601,4.83959 -16.14641,7.75762 -24.984154,7.65331 -8.837743,-0.10431 -17.718092,-3.35194 -24.1048436,-9.46144 -1.4143794,-1.35298 -2.7105135,-2.84582 -3.7037928,-4.53236 -0.9932794,-1.68654 -1.67774035,-3.57577 -1.82349491,-5.52764 -0.1834359,-2.45647 0.49906036,-4.93738 1.72617851,-7.07328 1.2271181,-2.13591 2.9799007,-3.94022 4.9514029,-5.41707 3.9430039,-2.95371 8.6809309,-4.5981 13.2206549,-6.51188 7.195665,-3.03343 14.105485,-6.86922 20.065951,-11.91423 5.960467,-5.04502 10.955936,-11.3424 13.901637,-18.57442 2.945702,-7.23203 3.757123,-15.42447 1.652112,-22.94432 -2.105011,-7.51986 -7.250232,-14.2657 -14.247521,-17.73229 -6.246897,-3.094832 -13.826127,-3.437258 -20.276238,-0.79193 -6.450112,2.64533 -11.6366247,8.26839 -13.6244603,14.95047 -2.1267209,7.14894 -0.5716637,15.10421 3.3047803,21.4763 3.876444,6.37208 9.899001,11.24923 16.53835,14.64767 13.278699,6.79687 28.624485,7.87735 43.16795,11.19533 23.597028,5.38347 45.871028,16.89773 70.012318,18.62964 6.58018,0.47207 13.35472,0.17279 19.49973,-2.22729 3.0725,-1.20005 5.95705,-2.92415 8.35097,-5.19341 2.39391,-2.26927 4.28717,-5.09325 5.31302,-8.22822 1.83136,-5.59657 0.72679,-11.98599 -2.56293,-16.86997 -3.28971,-4.88398 -8.62395,-8.25427 -14.37438,-9.52233 -5.75044,-1.26806 -11.86706,-0.50281 -17.30013,1.76814 -5.43307,2.27095 -10.19603,5.99979 -14.03421,10.46565 -5.90763,6.87375 -9.72314,15.86661 -9.04211,24.90457 0.34052,4.51898 1.80839,8.97376 4.38741,12.70013 2.57901,3.72637 6.28338,6.69815 10.55049,8.22422 5.40173,1.93185 11.39591,1.49575 16.9576,0.0892 5.56169,-1.40654 10.83966,-3.73652 16.26606,-5.59796 5.42639,-1.86145 11.1484,-3.26821 16.85922,-2.72287 2.8554,0.27266 5.67982,1.04199 8.19888,2.41386 2.51906,1.37188 4.72477,3.35975 6.20326,5.81775 2.2619,3.76043 2.68184,8.57279 1.10547,12.66816"
       id="path941"
       inkscape:path-effect="#path-effect945"
       inkscape:original-d="M 12.454209,6.5818966 C 25.105828,7.4515564 37.757177,8.3209396 50.408252,9.1900468 63.059325,10.059154 42.056177,31.049104 37.879731,41.97822 33.703288,52.907335 19.701368,28.813547 10.611777,22.230797 1.5221882,15.648047 8.8924507,33.905649 8.0323777,39.742663 7.1723048,45.579672 135.28309,15.151807 198.90805,2.8559678 262.533,-9.4398724 205.78673,7.3273576 209.22567,9.5626396 212.66459,11.797922 194.97782,27.447372 187.85348,36.389327 180.72915,45.33128 117.84145,17.263168 82.835007,7.6996754 47.828577,-1.8638175 72.763333,22.106875 67.727088,29.310062 62.690839,36.513248 123.98287,49.430352 152.11035,59.490084 180.23783,69.549818 114.03374,88.304209 94.995038,102.71084 75.956332,117.1175 152.72476,75.387655 181.58922,61.725642 c 28.86446,-13.662014 -6.14115,6.955343 -9.21215,10.432601 -3.07099,3.477256 -105.141026,-2.483675 -157.711947,-3.72593 -52.570923,-1.242253 4.66776,9.439294 7.00123,14.158531 2.333472,4.719233 113.493927,1.24225 170.240467,1.862961 56.74656,0.620716 8.10697,21.859045 12.16003,32.788165 4.05307,10.92912 -114.475996,6.45854 -171.714406,9.68742 -57.238409,3.22886 46.183835,21.36225 69.275346,32.04297 C 124.71929,169.65309 73.623132,88.180011 59.620398,52.783413 45.617662,17.386814 23.509056,65.700242 5.4529767,72.158243 c -18.0560797,6.458 30.2161123,34.775597 45.3237623,52.162987 15.107647,17.38739 102.193671,36.51438 153.290111,54.77115 51.09644,18.25678 -30.95252,0.49706 -46.42921,0.74518 -15.47668,0.24813 27.51389,-46.9464 41.27041,-70.42003 C 212.66459,85.943903 144.86374,77.871607 117.84117,62.098235 90.818593,46.324861 43.161635,155.49511 5.8214624,202.19314 -31.518711,248.89118 2.1368763,195.48675 0.29417469,192.13314 -1.5485272,188.77953 13.559938,179.46525 20.192411,173.13091 c 6.632471,-6.33436 14.248392,-47.44323 21.372179,-71.16526 7.123788,-23.721999 -22.600192,9.43932 -33.9006983,14.15854 -11.3005055,4.71923 42.0076603,31.54646 63.0110803,47.3193 21.003424,15.7728 46.675148,12.42004 70.012318,18.62964 23.33716,6.2096 22.10942,-10.43233 33.16372,-15.64892 11.05432,-5.21657 -32.18082,-9.43873 -48.27165,-14.15851 -16.09082,-4.7198 3.9308,30.55289 5.89579,45.82892 1.96497,15.27605 42.99028,2.8e-4 64.48502,0 21.49472,-2.7e-4 0.73725,8.44572 1.10547,12.66816" />
  </g>
</svg>
